<mxfile host="app.diagrams.net" agent="Mozilla/5.0 (Windows NT 10.0; Win64; x64; rv:142.0) Gecko/20100101 Firefox/142.0" version="28.2.2">
  <diagram name="PÃ¡gina-1" id="1DirMK2gExrxGGa70I7f">
    <mxGraphModel dx="815" dy="457" grid="1" gridSize="10" guides="1" tooltips="1" connect="1" arrows="1" fold="1" page="1" pageScale="1" pageWidth="827" pageHeight="1169" math="0" shadow="0">
      <root>
        <mxCell id="0" />
        <mxCell id="1" parent="0" />
        <mxCell id="7NlO1K1zSHhLkZ6mwOwn-1" value="Usuario del&amp;nbsp;&lt;br&gt;guante inteligente" style="shape=umlActor;verticalLabelPosition=bottom;verticalAlign=top;html=1;outlineConnect=0;" vertex="1" parent="1">
          <mxGeometry x="150" y="170" width="30" height="60" as="geometry" />
        </mxCell>
        <mxCell id="7NlO1K1zSHhLkZ6mwOwn-2" value="" style="rounded=0;whiteSpace=wrap;html=1;" vertex="1" parent="1">
          <mxGeometry x="230" y="80" width="390" height="260" as="geometry" />
        </mxCell>
        <mxCell id="7NlO1K1zSHhLkZ6mwOwn-8" style="rounded=0;orthogonalLoop=1;jettySize=auto;html=1;exitX=0.5;exitY=0;exitDx=0;exitDy=0;entryX=0.5;entryY=1;entryDx=0;entryDy=0;dashed=1;" edge="1" parent="1" source="7NlO1K1zSHhLkZ6mwOwn-4" target="7NlO1K1zSHhLkZ6mwOwn-5">
          <mxGeometry relative="1" as="geometry">
            <mxPoint x="320" y="205" as="sourcePoint" />
            <mxPoint x="320" y="150" as="targetPoint" />
          </mxGeometry>
        </mxCell>
        <mxCell id="7NlO1K1zSHhLkZ6mwOwn-12" value="&lt;font style=&quot;font-size: 9px;&quot;&gt;include&lt;/font&gt;" style="edgeLabel;html=1;align=center;verticalAlign=middle;resizable=0;points=[];" vertex="1" connectable="0" parent="7NlO1K1zSHhLkZ6mwOwn-8">
          <mxGeometry x="-0.3179" y="-3" relative="1" as="geometry">
            <mxPoint x="-3" y="-6" as="offset" />
          </mxGeometry>
        </mxCell>
        <mxCell id="7NlO1K1zSHhLkZ6mwOwn-9" style="rounded=0;orthogonalLoop=1;jettySize=auto;html=1;exitX=1;exitY=0.5;exitDx=0;exitDy=0;dashed=1;" edge="1" parent="1" source="7NlO1K1zSHhLkZ6mwOwn-4" target="7NlO1K1zSHhLkZ6mwOwn-6">
          <mxGeometry relative="1" as="geometry" />
        </mxCell>
        <mxCell id="7NlO1K1zSHhLkZ6mwOwn-13" value="&lt;font style=&quot;font-size: 9px;&quot;&gt;include&lt;/font&gt;" style="edgeLabel;html=1;align=center;verticalAlign=middle;resizable=0;points=[];" vertex="1" connectable="0" parent="7NlO1K1zSHhLkZ6mwOwn-9">
          <mxGeometry x="-0.0292" relative="1" as="geometry">
            <mxPoint x="6" as="offset" />
          </mxGeometry>
        </mxCell>
        <mxCell id="7NlO1K1zSHhLkZ6mwOwn-10" style="rounded=0;orthogonalLoop=1;jettySize=auto;html=1;exitX=1;exitY=0.5;exitDx=0;exitDy=0;entryX=0;entryY=0.5;entryDx=0;entryDy=0;dashed=1;" edge="1" parent="1" source="7NlO1K1zSHhLkZ6mwOwn-4" target="7NlO1K1zSHhLkZ6mwOwn-7">
          <mxGeometry relative="1" as="geometry" />
        </mxCell>
        <mxCell id="7NlO1K1zSHhLkZ6mwOwn-14" value="&lt;font style=&quot;font-size: 9px;&quot;&gt;include&lt;/font&gt;" style="edgeLabel;html=1;align=center;verticalAlign=middle;resizable=0;points=[];" vertex="1" connectable="0" parent="7NlO1K1zSHhLkZ6mwOwn-10">
          <mxGeometry x="0.0341" y="1" relative="1" as="geometry">
            <mxPoint y="2" as="offset" />
          </mxGeometry>
        </mxCell>
        <mxCell id="7NlO1K1zSHhLkZ6mwOwn-4" value="Comunicarse Mediante Guantes" style="rounded=1;whiteSpace=wrap;html=1;arcSize=50;" vertex="1" parent="1">
          <mxGeometry x="294" y="170" width="120" height="60" as="geometry" />
        </mxCell>
        <mxCell id="7NlO1K1zSHhLkZ6mwOwn-5" value="Capturar Gesto" style="rounded=1;whiteSpace=wrap;html=1;arcSize=50;" vertex="1" parent="1">
          <mxGeometry x="294" y="90" width="120" height="40" as="geometry" />
        </mxCell>
        <mxCell id="7NlO1K1zSHhLkZ6mwOwn-6" value="Procesar Gesto y Convertir" style="rounded=1;whiteSpace=wrap;html=1;arcSize=50;" vertex="1" parent="1">
          <mxGeometry x="480" y="120" width="120" height="50" as="geometry" />
        </mxCell>
        <mxCell id="7NlO1K1zSHhLkZ6mwOwn-7" value="Generar Voz" style="rounded=1;whiteSpace=wrap;html=1;arcSize=50;" vertex="1" parent="1">
          <mxGeometry x="480" y="200" width="120" height="40" as="geometry" />
        </mxCell>
        <mxCell id="7NlO1K1zSHhLkZ6mwOwn-11" value="" style="endArrow=none;html=1;rounded=0;entryX=0;entryY=0.5;entryDx=0;entryDy=0;" edge="1" parent="1" source="7NlO1K1zSHhLkZ6mwOwn-1" target="7NlO1K1zSHhLkZ6mwOwn-4">
          <mxGeometry width="50" height="50" relative="1" as="geometry">
            <mxPoint x="350" y="400" as="sourcePoint" />
            <mxPoint x="400" y="350" as="targetPoint" />
          </mxGeometry>
        </mxCell>
        <mxCell id="7NlO1K1zSHhLkZ6mwOwn-18" style="rounded=0;orthogonalLoop=1;jettySize=auto;html=1;exitX=0.25;exitY=0;exitDx=0;exitDy=0;dashed=1;entryX=0.75;entryY=1;entryDx=0;entryDy=0;" edge="1" parent="1" source="7NlO1K1zSHhLkZ6mwOwn-15" target="7NlO1K1zSHhLkZ6mwOwn-4">
          <mxGeometry relative="1" as="geometry">
            <mxPoint x="350" y="230" as="targetPoint" />
          </mxGeometry>
        </mxCell>
        <mxCell id="7NlO1K1zSHhLkZ6mwOwn-20" value="&lt;font style=&quot;font-size: 9px;&quot;&gt;extend&lt;/font&gt;" style="edgeLabel;html=1;align=center;verticalAlign=middle;resizable=0;points=[];" vertex="1" connectable="0" parent="7NlO1K1zSHhLkZ6mwOwn-18">
          <mxGeometry x="-0.0154" y="-1" relative="1" as="geometry">
            <mxPoint as="offset" />
          </mxGeometry>
        </mxCell>
        <mxCell id="7NlO1K1zSHhLkZ6mwOwn-15" value="Mostrar Error de Gesto" style="rounded=1;whiteSpace=wrap;html=1;arcSize=50;" vertex="1" parent="1">
          <mxGeometry x="390" y="290" width="160" height="40" as="geometry" />
        </mxCell>
        <mxCell id="7NlO1K1zSHhLkZ6mwOwn-17" style="rounded=0;orthogonalLoop=1;jettySize=auto;html=1;exitX=0.5;exitY=0;exitDx=0;exitDy=0;entryX=0.5;entryY=1;entryDx=0;entryDy=0;dashed=1;" edge="1" parent="1" source="7NlO1K1zSHhLkZ6mwOwn-16" target="7NlO1K1zSHhLkZ6mwOwn-4">
          <mxGeometry relative="1" as="geometry" />
        </mxCell>
        <mxCell id="7NlO1K1zSHhLkZ6mwOwn-19" value="&lt;font style=&quot;font-size: 9px;&quot;&gt;extend&lt;/font&gt;" style="edgeLabel;html=1;align=center;verticalAlign=middle;resizable=0;points=[];" vertex="1" connectable="0" parent="7NlO1K1zSHhLkZ6mwOwn-17">
          <mxGeometry x="-0.1122" y="2" relative="1" as="geometry">
            <mxPoint as="offset" />
          </mxGeometry>
        </mxCell>
        <mxCell id="7NlO1K1zSHhLkZ6mwOwn-16" value="Activar Modo Offline" style="rounded=1;whiteSpace=wrap;html=1;arcSize=50;" vertex="1" parent="1">
          <mxGeometry x="250" y="290" width="130" height="40" as="geometry" />
        </mxCell>
      </root>
    </mxGraphModel>
  </diagram>
</mxfile>
